<?xml version="1.0" encoding="UTF-8" standalone="no"?>
<svg
   xmlns:osb="http://www.openswatchbook.org/uri/2009/osb"
   xmlns:dc="http://purl.org/dc/elements/1.1/"
   xmlns:cc="http://creativecommons.org/ns#"
   xmlns:rdf="http://www.w3.org/1999/02/22-rdf-syntax-ns#"
   xmlns:svg="http://www.w3.org/2000/svg"
   xmlns="http://www.w3.org/2000/svg"
   xmlns:xlink="http://www.w3.org/1999/xlink"
   xmlns:sodipodi="http://sodipodi.sourceforge.net/DTD/sodipodi-0.dtd"
   xmlns:inkscape="http://www.inkscape.org/namespaces/inkscape"
   width="500"
   height="500"
   id="svg2"
   version="1.1"
   inkscape:version="0.91 r13725"
   sodipodi:docname="librodeesher.svg"
   inkscape:export-filename="/home/jorge/Escritorio/Esher.svg.png"
   inkscape:export-xdpi="107.21423"
   inkscape:export-ydpi="107.21423">
  <metadata
     id="metadata24">
    <rdf:RDF>
      <cc:Work
         rdf:about="">
        <dc:format>image/svg+xml</dc:format>
        <dc:type
           rdf:resource="http://purl.org/dc/dcmitype/StillImage" />
        <dc:title />
      </cc:Work>
    </rdf:RDF>
  </metadata>
  <defs
     id="defs22">
    <linearGradient
       id="linearGradient4381"
       osb:paint="solid">
      <stop
         style="stop-color:#ffffff;stop-opacity:1;"
         offset="0"
         id="stop4383" />
    </linearGradient>
    <linearGradient
       inkscape:collect="always"
       xlink:href="#linearGradient4381"
       id="linearGradient4385"
       x1="3.6274262"
       y1="275.20101"
       x2="499.26176"
       y2="275.20101"
       gradientUnits="userSpaceOnUse"
       gradientTransform="translate(0,-0.0625)" />
  </defs>
  <sodipodi:namedview
     pagecolor="#000000"
     bordercolor="#666666"
     borderopacity="1"
     objecttolerance="10"
     gridtolerance="10"
     guidetolerance="10"
     inkscape:pageopacity="1"
     inkscape:pageshadow="2"
     inkscape:window-width="1215"
     inkscape:window-height="1000"
     id="namedview20"
     showgrid="false"
     inkscape:zoom="1"
     inkscape:cx="244.73658"
     inkscape:cy="335.63291"
     inkscape:window-x="65"
     inkscape:window-y="24"
     inkscape:window-maximized="1"
     inkscape:current-layer="svg2" />
  <path
     style="fill:url(#linearGradient4385);fill-opacity:1;fill-rule:nonzero;stroke:#000000;stroke-width:1px;stroke-linecap:round;stroke-linejoin:miter;stroke-opacity:1"
     d="m 299.40234,65.779297 c -12.65469,0.22302 -5.44533,1.45486 -0.44531,3.314453 -6.20481,13.829349 -30.20859,-4.141594 -26.52344,6.630859 7.60029,3.88688 -9.23489,7.185743 -16.57812,8.289063 -10.81405,3.15963 -25.89156,18.791108 -29.60547,28.183598 -3.26232,7.52665 -35.35444,18.64239 -37.20703,16.32617 -6.93922,-6.82053 -23.00973,-6.23566 -29.1582,-0.35352 -5.31421,5.69701 -12.35558,12.41147 1.6582,8.28906 8.31153,-0.27999 -2.06242,15.76472 -11.60352,14.91993 -15.80535,0.29956 -15.49961,-13.48722 -33.15625,-9.94727 -24.754896,8.62366 14.59556,8.17521 4.00196,20.91992 -2.87796,7.5108 -12.96018,10.18591 -21.539066,12.25586 -6.964043,0.73081 -16.857487,-3.78658 -19.173828,-2.69531 4.550768,-6.22674 3.537417,-15.73283 -6.791016,-20.11914 -3.372485,11.76848 -1.469474,22.66139 -8.626953,24.875 -7.10322,8.25271 9.377482,22.99182 -5.933594,23.22851 -7.26204,-0.0261 -10.603444,-18.20548 -3.994141,-22.26953 -0.668005,-10.85168 -5.551277,-18.27461 -18.255859,-17.53711 -9.905422,11.65263 -17.193902,-22.94259 -16.578125,-1.6582 0.09808,8.69883 1.919715,19.76913 10.148438,18.63086 9.657508,-1.6483 10.255109,5.8655 12.363281,13.72852 2.901778,4.67713 -6.485031,14.71556 -15.025391,8.06836 -15.354894,-9.29189 -5.372605,-5.25457 -7.486328,2.67578 -15.2629458,12.01255 3.321348,15.05384 0.02148,29.14257 -3.629929,6.82827 -11.8454146,9.20091 -13.2832026,18.10352 -3.5473179,6.87995 -3.6087429,10.13582 1.6582031,17.4082 3.5379885,6.89758 5.5908115,3.11295 8.6425785,4.29102 -0.654856,-1.96575 9.370362,7.35981 6.277343,11.45703 -5.368111,3.15771 -11.763035,20.86304 -7.103515,29.00391 11.920609,1.00028 14.922225,5.27784 13.734375,21.55859 -7.105399,4.51864 -9.080262,13.31394 -13.494141,20.9043 -0.551219,7.97834 -4.340322,16.90767 -3.083984,27.17187 -0.501075,11.23395 15.559389,9.48566 14.919922,0 -0.931348,-9.14966 -3.417741,-24.4991 3.316406,-19.89258 3.519322,10.56946 9.387168,25.74431 3.316406,34.8125 -4.177805,7.42673 -13.433978,9.7779 -13.263672,21.55274 -7.555983,10.14419 10.075064,25.38059 3.316407,34.8125 -1.695137,8.57684 -6.182492,10.9031 -4.97461,20.98437 -2.724885,16.9765 12.711664,13.34015 11.605469,2.22461 6.761878,-7.88772 0.02272,-31.00778 16.578125,-28.18164 5.188563,7.07621 3.566004,18.35914 6.630859,26.52344 0.413079,6.0512 17.898867,7.84772 21.550781,1.6582 -5.680638,-5.06153 -10.194075,-8.46306 -9.945312,-18.11328 -6.059033,-13.09037 16.657001,-20.07347 17.763672,-11.73437 5.840163,2.5618 10.596889,10.16971 12.076172,17.41406 4.39635,5.69723 -10.24383,23.7607 8.28907,20.72266 5.51807,-7.03445 12.23676,-20.6398 8.28906,-31.49805 -1.85698,-9.90767 -9.57737,-8.38117 -11.60547,-18.23633 -9.290331,-9.92534 2.37737,-21.38557 4.97656,-30.54883 4.30206,-7.9808 -7.673188,-21.52335 3.63672,-23.89453 4.19953,5.67004 10.40404,18.44648 16.25391,9.68359 1.74712,-8.36362 6.24977,-12.6707 14.91992,-16.57812 8.12183,-6.13 14.4522,0.007 14.91992,9.05664 2.03862,8.41174 -12.92589,18.79762 0.64844,20.55078 1.20996,3.42941 4.9598,6.58851 4.32617,-1.74805 -1.91019,-11.32147 6.71954,-12.19183 13.26172,-16.2539 11.27119,-1.27503 10.14888,9.1965 9.94726,18.23437 -3.25765,5.78448 -2.43461,16.88698 -8.28906,16.57813 -4.57381,5.30253 1.40201,14.29664 -13.30664,19.6289 4.42789,7.97973 20.45592,-3.92143 21.5957,-9.68164 9.00274,-12.8057 13.57832,-23.35849 21.55079,-23.20898 3.1449,10.5538 1.06614,23.21308 1.6582,34.81445 -1.53926,7.82391 -9.36238,21.92196 0,26.52344 11.487,4.82418 23.19134,4.71711 18.23437,9.94727 9.29747,-6.46587 3.98263,-11.0125 -3.31445,-18.23633 -1.63134,-8.85994 0.60488,-23.62225 11.60352,-23.20899 5.29442,-2.73257 3.20646,-13.34703 8.28906,-11.60351 7.60197,4.83147 8.38403,11.8667 8.31445,23.41211 -3.04645,7.26562 -9.87266,30.07857 4.94922,21.34765 5.84466,-4.09295 8.78472,-8.78528 11.83594,-15.92968 2.78814,-7.08026 8.88821,-18.24826 -0.23242,-25.51563 -0.21383,-9.48054 0.3148,-3.93066 -9.94727,-13.26172 -3.09663,-2.53936 -3.18111,-8.66034 5.80274,-9.5332 1.87555,-0.0674 10.66455,6.11621 15.75,2.90234 6.52166,-5.22675 10.23401,-5.29664 1.68359,-17.20898 -2.32719,-7.82065 25.86048,-13.62235 32.26172,-18.55274 11.55425,-7.68097 -1.22933,23.52967 9.85547,14.14258 19.16816,-13.18644 13.88018,-29.55181 20.55468,-31.91015 8.3918,-4.6132 7.36563,11.79773 9.625,20.60742 10.0656,-1.83702 7.263,-15.401 13.5,-23.75781 2.45061,-7.21234 0.44192,-9.09108 13.25,-18.875 10.1161,-18.16506 23.33137,-22.51312 37.65625,-18.22852 5.05942,-19.83381 55.00585,-17.07527 62.58204,-33.91992 4.5797,-0.84163 7.42023,-21.51114 2.10546,-30.47266 -6.64931,-5.05021 2.39518,-14.18177 2.94141,-14.2832 7.77178,-3.89346 -1.10947,-16.5842 10.86719,-14.93946 1.62221,-11.32956 -9.34563,-7.39945 -10.41406,-20.61328 0.92077,-11.55698 10.59431,-4.96409 13.73046,-7.56836 1.30858,-3.73536 -20.76664,-8.43897 -18.96679,-15.76562 2.26939,-4.72375 24.36199,-5.88592 14.12304,-12.57617 -11.50214,-0.062 1.58404,-14.03671 2.36915,-25.10547 -4.75185,-17.7341 -7.60861,-22.22733 -20.63086,-9.20508 -5.92275,-0.16864 -6.00189,1.27728 -8.9004,-5.89844 -7.72235,-4.417 -3.99239,-21.58561 -13.12695,-24.037106 -11.04462,-0.49413 -4.62898,13.276126 -14.53515,13.236326 -1.25792,3.93025 -12.38945,11.31961 -10.7754,-0.74023 0,-11.496528 -4.62677,-12.829496 -6.63085,-2.54883 -7.78637,14.49045 -16.41007,-2.5781 -16.57813,-14.919922 -12.34696,-20.861621 -7.36737,-1.787733 -17.22656,-1.890626 -6.48025,5.659172 -18.52103,12.923928 -24.21875,6.345704 -5.68478,-7.26561 -0.42223,-14.932952 -8.32813,-15.175782 -2.00368,-5.58564 -12.36637,-5.476585 -16.53906,-5.857422 -1.91174,-16.105595 -15.20413,-6.261944 -24.86719,-8.289062 -2.01962,-1.773048 -11.79689,-2.770239 -14.47461,-3.314453 z m 8.91797,11.083984 c 0.78016,-0.02226 1.56099,0.159757 2.24219,0.576172 2.03616,0.629909 3.94761,1.590377 5.92969,2.361328 1.22774,0.604454 1.57753,2.30107 0.89843,3.4375 -0.16892,0.593065 -0.68743,1.122614 -1.34765,1.058594 -1.16397,-0.0517 -2.10608,-0.816669 -3.10547,-1.318359 -2.44209,-1.083417 -5.24964,0.04654 -7.69141,-1.041016 -0.36252,-0.220131 -0.71934,-0.487832 -0.92968,-0.865234 -0.47975,-0.859811 -0.009,-1.882523 0.57617,-2.560547 0.82941,-1.009823 2.12747,-1.611344 3.42773,-1.648438 z m 22.25196,2.408203 c 0.70347,0.724103 1.87355,1.400462 1.50781,2.576172 -0.29897,0.970449 -0.18803,2.134058 -0.88086,2.9375 -1.04953,0.759049 -2.41862,-0.182882 -2.32422,-1.43164 -0.36857,-1.011316 -0.29642,-2.090805 0.2832,-3.021485 z m 9.20898,9.212891 c 1.00651,0.0753 1.99136,0.551384 2.7168,1.367187 1.46379,1.576792 2.17352,4.523258 5.00586,3.839844 3.21998,-0.731363 4.13004,2.575324 3.58984,5.085938 -0.1455,2.701526 -1.63031,0.05381 -2.60352,-0.572266 -2.13442,-0.903323 -4.10305,-2.344509 -6.4414,-2.605469 -2.32721,0.265463 -4.82207,0.498222 -6.80469,-1.08789 -2.58371,-1.145243 -0.87736,-5.303057 1.69141,-4.986328 0.81108,-0.78908 1.83919,-1.116314 2.8457,-1.041016 z m -70.92969,3.484375 c 1.99313,3.114795 -5.14561,3.152294 -6.74414,5.259766 -3.08961,2.618943 -7.05109,3.615064 -10.4668,5.671874 -4.36781,2.96432 -9.4452,4.71899 -13.69921,7.83789 1.84733,-1.54117 2.18101,-3.93215 3.88476,-5.55469 3.14471,-2.44816 4.98375,-6.208085 8.53516,-8.185543 5.23872,-4.082251 12.05622,-4.91802 18.49023,-5.029297 z m 122.00586,13.56445 c 0.0774,-0.007 0.1567,-0.006 0.23828,0.004 0.8966,0.15177 1.26062,1.18473 1.16602,1.99023 -0.58145,2.43229 -0.07,5.00056 0.93945,7.24805 -1.31585,-0.7106 -2.74414,-1.23537 -4.21875,-1.49414 -0.84153,-0.18494 -1.71078,0.0359 -2.54297,-0.21094 -0.99136,-0.26368 -2.07635,-0.6936 -2.61914,-1.62109 -0.38143,-0.67972 0.0589,-1.4598 0.60157,-1.90039 1.90922,-0.66521 3.67434,-1.72359 5.19335,-3.05469 0.26664,-0.45 0.70065,-0.90851 1.24219,-0.96094 z m 53.7168,13.41992 c 2.00494,-0.0404 -0.74839,2.32589 -0.82227,3.45118 -0.89195,1.55274 -1.25017,3.34952 -2.29297,4.6914 -0.51284,1.77833 -2.38345,2.42986 -3.95117,1.4668 -2.23499,-0.66924 -1.02948,-2.23487 -0.32031,-3.66797 0.63041,-1.88181 2.3065,-2.983 3.69336,-4.25781 1.11672,-0.46457 2.09243,-1.21309 3.22656,-1.64063 0.17816,-0.0252 0.33314,-0.0402 0.4668,-0.043 z m 9.3457,3.85547 c 0.66099,0.006 1.30875,0.22496 1.79883,0.71485 0.78234,1.49079 1.14499,3.15158 1.45703,4.79297 0.10074,0.80411 0.40501,1.59867 0.31641,2.41211 -0.084,2.30789 1.26142,4.30512 2.42969,6.18164 -0.0916,0.77796 -0.60245,1.54164 -1.39258,1.73437 -1.42805,0.32989 -2.89136,-0.29485 -4.07618,-1.05664 -2.01861,-1.63924 -4.66139,-2.39349 -6.4414,-4.3418 -0.60963,-0.5512 -0.83798,-1.36878 -0.80078,-2.16992 0.0995,-2.19226 1.55877,-3.9602 2.29492,-5.04687 0.73615,-1.08666 1.55372,-2.04643 2.53125,-2.65625 0.54673,-0.36311 1.22182,-0.57031 1.88281,-0.56446 z m -276.9043,9.61329 c 1.16882,-0.0294 2.3292,0.13259 3.21876,0.94531 1.12639,0.90307 1.86799,2.27731 3.2871,2.74414 1.71829,1.82304 -1.57147,2.50706 -2.69336,3.40429 -2.57752,0.98233 -4.73131,2.79959 -7.32812,3.73438 1.9963,-1.2202 1.80629,-3.66206 1.74609,-5.69141 0.64788,-1.70284 -1.19237,-3.58181 -0.28711,-4.97656 0.65112,-0.0552 1.35537,-0.1425 2.05664,-0.16015 z m 305.30665,2.7246 c 0.33658,-0.0185 0.67363,0.078 0.93359,0.32032 0.85879,0.77719 1.12148,2.16479 0.60352,3.20117 -0.24863,1.10485 -0.23115,2.24387 -0.34766,3.36523 -0.08,1.03174 -0.39416,2.0335 -0.89258,2.9375 -0.37596,0.69757 -1.21973,1.06146 -1.98633,0.87696 -1.22516,-0.27818 -2.29146,-1.13774 -2.91406,-2.21875 -0.79708,-1.37696 -1.0199,-3.24754 -0.0684,-4.60743 0.0339,-0.098 0.0709,-0.1943 0.11719,-0.2871 0.20894,-0.70866 0.80702,-0.0666 1.29492,-0.16993 0.91107,-0.0535 1.46731,-0.91918 1.79688,-1.67578 0.23799,-0.42746 0.26964,-0.97612 0.53515,-1.36328 0.25544,-0.22499 0.59116,-0.3604 0.92774,-0.37891 z m -347.62305,20.54493 c 0.71403,-0.0509 2.08454,1.31273 2.51367,1.96679 1.06086,1.89503 3.16161,2.51836 5.10156,3.03711 -0.64107,1.51399 -3.7202,1.42535 -5.23437,2.47071 -2.23533,0.92236 -4.1319,2.73726 -6.58008,3.08398 0.34776,-1.18243 1.44255,-1.87975 2.27734,-2.69922 2.1484,-1.50795 1.97489,-4.4549 1.50391,-6.71289 -0.0964,-0.80747 0.0934,-1.12335 0.41797,-1.14648 z m -58.568361,26.45703 c 0.191104,0.0148 0.392065,0.0474 0.605469,0.10156 2.641767,1.22534 5.504735,0.90083 8.316406,1.17773 3.799331,0.54266 0.668417,2.66883 -1.34375,3.27149 -2.850233,1.25688 -5.012978,3.64547 -7.84375,4.90234 0.175867,0.10692 0.379656,0.18906 0.623047,0.23828 l -0.43164,0.0312 -0.396485,-0.16992 c 0.07052,-0.0295 0.1354,-0.0687 0.205078,-0.0996 -1.169438,-0.71092 -0.999183,-2.56003 -1.480468,-3.73828 -1.499378,-1.94885 -1.120466,-5.93728 1.746093,-5.71484 z m 398.300781,2.09765 c 0.32679,0.009 0.7076,0.10718 1.15234,0.32032 3.19967,1.25351 -0.48684,4.06593 0.92188,6.31836 1.46685,2.27392 -0.99947,5.82371 -3.27148,3.31445 -1.32718,-2.41156 -1.8329,-5.50471 -0.88672,-7.09375 0.25996,-1.25112 0.66789,-2.89628 2.08398,-2.85938 z M 27.306641,208.10156 c 0.04297,-0.009 0.08841,-0.009 0.134765,0 0.770363,0.23416 1.269303,0.93817 1.919922,1.37696 0.797921,0.0939 1.682493,0.36639 2.542969,1.00195 0.178632,0.0397 2.012654,1.51811 2.224609,2.40625 0.253364,0.6166 -0.490386,0.28689 -0.761718,0.43359 -0.229484,0.93098 -0.06964,1.90353 0.03906,2.8418 -0.47081,0.75783 -0.775944,1.11434 -1.765625,2.09375 -0.789031,-0.28007 -0.02514,0.88989 -0.794922,0.7793 -0.676363,-0.0749 -1.475044,0.1836 -1.984375,-0.41797 -0.941039,-0.29684 -2.982249,-0.82448 -4.455078,-1.70703 -0.808436,-0.15519 0.0842,-1.09907 -0.253906,-1.51172 -0.895461,0.28905 -0.708081,-0.69332 -0.619141,-1.24414 -0.280927,-1.99033 1.48654,-2.32795 3.482422,-5.80274 0.05416,-0.12454 0.162111,-0.22369 0.291018,-0.25 z m 5.220703,32.39063 c 1.603278,0.36901 3.21851,0.78287 4.68164,1.55664 1.745943,0.95952 2.372373,3.09216 2.445313,4.96289 -0.129263,1.36191 -0.03188,2.73213 -0.002,4.09766 -0.0122,1.23107 -0.05824,2.58178 -0.771485,3.63281 -0.90177,0.23915 -1.176118,1.18966 -1.746093,1.83593 -0.819139,-0.10025 -1.179571,0.92567 -1.994141,1.00977 -1.309897,0.0963 -2.252371,-0.99951 -3.228516,-1.69727 -0.947236,-0.65099 -2.119554,-0.70788 -3.175781,-1.14843 -0.942871,-0.16676 -1.823327,-0.53172 -2.728516,-0.81446 -1.306954,0.0881 -1.516624,-1.47985 -1.800781,-2.42773 -0.446682,-2.57548 0.84998,-5.08082 2.466797,-6.99609 1.975986,-1.29443 3.484048,-3.38123 5.853516,-4.01172 z m 439.015626,18.14648 c 0.13388,-0.008 0.27057,-0.007 0.41211,0.002 0.15097,0.01 0.30622,0.0301 0.4668,0.0605 4.38787,0.0897 4.94283,5.11946 3.06835,8.16016 -1.46335,3.34391 -5.46248,4.20903 -8.69921,4.84765 -3.68111,0.29096 -7.48165,1.13111 -10.92774,2.56836 -2.4452,3.62701 -5.83162,-1.70749 -2.38672,-3.46093 4.05357,-3.5054 9.03015,-5.75252 13.21485,-9.11133 1.65276,-1.02821 2.84333,-2.94804 4.85156,-3.06641 z M 50.980469,272.50195 c 0.57929,-0.002 1.147479,0.21922 1.677734,0.77539 0.632287,2.67857 0.0014,5.92706 -2.330078,7.61524 -2.310229,2.28687 -7.217824,-0.38653 -5.609375,-3.55469 0.474012,-0.58978 0.961001,-1.17021 1.480469,-1.7207 1.205419,-1.08658 3.043379,-3.1097 4.78125,-3.11524 z m 394.181641,10.54297 c 1.23674,0.0523 10.68212,0.60327 11.3125,1.61914 -5.01678,1.62672 -11.05654,5.84992 -16.20508,5.77539 -1.70156,0.25641 -4.72867,1.06884 -5.39844,-1.1582 -0.20122,-0.66993 -2.57007,-2.28757 -2.23463,-2.8956 1.48435,-2.51508 1.50146,-7.01074 4.00747,-7.72801 0.64868,-0.54786 7.13816,4.45748 7.98693,4.39509 0.17683,-0.013 0.35457,-0.0151 0.53125,-0.008 z m -411.556641,6.76172 c 0.16896,-8.7e-4 0.345693,0.0447 0.501953,0.14844 0.616913,0.34365 1.175494,0.79162 1.759766,1.19336 0.662767,0.36767 3.450526,1.05706 7.130859,2.91406 0.215233,1.30368 2.104594,1.02859 2.027344,3.20703 0.106356,0.23957 -0.997069,1.28856 -2.044922,1.78516 -0.279852,1.17019 -1.514294,1.08918 -2.886719,1.85351 -1.582894,0.2921 -3.201008,-0.0251 -4.798828,0.0273 -3.464716,-0.12245 -4.701083,-1.33043 -4.292969,-5.35743 -0.09527,-2.00666 1.68931,-2.847 1.986328,-4.76367 -0.334417,-0.5773 0.110308,-1.00519 0.617188,-1.00781 z m 389.920751,1.9058 c -2.72976,1.65929 -6.22785,11.32592 -9.93316,11.8784 -1.89059,-0.21989 -10.95266,-2.68028 -12.89636,-2.76762 3.63634,0.0443 21.15355,-8.13113 22.82952,-9.11078 z M 64.332031,314.14062 c 3.95837,0.0575 7.96677,1.69861 9.394531,5.00586 2.368747,5.37576 -0.468223,11.05352 -2.353515,16.10352 -2.343985,4.25329 -1.805316,10.22236 -5.970703,13.32617 -4.671698,0.58018 -3.923406,-6.06765 -3.941406,-9.14453 0.508814,-4.18396 -2.110782,-7.45028 -4.472657,-10.54297 -2.349813,-2.8974 -2.341803,-6.75088 -1.748047,-10.25 1.225933,-3.02898 5.133428,-4.55551 9.091797,-4.49805 z m 316.048829,-1.06054 -0.0703,0.30859 c -0.04,0.0583 -0.0673,0.11597 -0.10157,0.17383 0.0622,-0.15824 0.12609,-0.31553 0.17188,-0.48242 z m -0.43945,1.0664 c -0.50144,1.64339 -15.53685,17.97054 -19.96485,27.11329 0.72326,4.70641 -2.05066,7.62797 -3.91406,8.02343 -2.57351,0.031 -5.69099,-6.05158 -2.52539,-10.32031 2.59961,-6.30928 25.6752,-23.42969 26.4043,-24.81641 z M 41.507812,336.87305 c 1.521668,0.0209 2.738251,0.9672 2.017579,3.125 0.26256,3.34192 -0.495696,6.62497 -0.572266,9.95312 0.820788,3.82869 -2.562265,0.0491 -3.990234,-0.58789 -2.663825,-1.12607 -9.817851,1.33178 -8.699219,-3.55078 C 31.959054,342.24595 35.524633,340.33116 38.5,338 l 0.291016,-0.22656 c 0.780154,-0.59165 1.803796,-0.91292 2.716796,-0.90039 z m 101.689458,0.33398 c 1.38422,-0.0611 2.65047,1.12834 3.95312,1.85547 3.95094,2.47703 -0.91031,6.04248 -0.81641,7.07812 -0.0381,1.08569 -3.71492,1.55713 -4.61523,1.16797 -1.01274,-0.0818 -4.02839,-3.14022 -3.66406,-4.28515 -0.14566,-0.99455 1.52624,-3.5457 2.49023,-3.98633 0.94953,-1.3073 1.82181,-1.79344 2.65235,-1.83008 z m 26.66406,12.88672 c 0.23522,0.0192 4.95965,1.4364 5.16797,1.50391 0.79207,0.43649 1.54822,0.87895 2.45898,0.98828 1.3488,0.81256 5.5919,8.90108 4.57617,9.94336 -1.13027,1.09538 -11.97224,3.21778 -13.5039,2.16992 -1.45376,-0.77023 -2.97428,-8.72468 -3.30664,-10.27539 -0.0334,-1.69993 2.96087,-4.46418 4.60742,-4.33008 z m 158.74805,0.95898 c 1.27866,-0.008 2.32105,1.64153 1.59179,3.38868 -0.27807,2.07558 -1.48079,3.85316 -1.55859,5.98047 -0.4155,1.88522 -1.17259,5.47815 -3.84961,4.48632 -0.41532,-1.34982 -1.70116,-3.91376 -1.07227,-6.0332 1.63383,-1.70157 -0.60041,-5.56779 2.25586,-5.95312 0.33201,-0.17884 0.61086,-0.43176 0.88672,-0.6836 0.5352,-0.83496 1.16489,-1.18196 1.7461,-1.18555 z M 53.021484,362.66797 c 1.302322,0.0285 2.582103,0.17498 3.261719,0.2207 5.940455,2.11582 13.595472,-0.57838 18.125,4.54492 2.376689,7.54856 -10.496535,6.2675 -12.523437,12.75196 -1.285684,6.04286 -8.202,12.94581 -13.486328,6.19922 C 46.226216,379.60278 46.147978,371.22141 49,364.5 c -0.381236,-1.60253 1.850949,-1.87957 4.021484,-1.83203 z m 65.949216,9.52344 c 0.78442,0.058 1.67356,0.21229 2.38868,0.52539 0.99263,0.75098 0.63809,2.17115 0.34179,3.18164 -0.55051,1.25641 -2.05817,0.44493 -3.06445,0.42773 -1.31157,-0.15166 -1.86562,-1.58561 -1.60352,-2.74805 -0.26574,-1.48442 1.40188,-0.69054 1.9375,-1.38671 z m -34.824216,7.38671 c 0.240983,-0.006 0.489954,0.008 0.746094,0.0449 0,0 1.467485,0.15753 2.119141,0.48242 4.384245,0.58402 7.819967,4.76101 7.253906,9.21289 0.607941,3.3729 -4.018529,9.42406 -6.568359,4.74219 -0.955316,-3.88564 -13.237211,-0.93973 -15.501954,-3.4043 -1.412424,-3.51651 8.336434,-10.98615 11.951172,-11.07813 z m 132.158206,4.58594 c 0.33356,0.008 0.65961,0.0992 0.95312,0.31836 1.31833,1.01435 1.0667,3.17718 -0.10547,4.20703 -0.66774,0.39065 -1.08785,1.34593 -1.96875,1.26953 -1.13833,-0.34638 -1.62118,-1.55303 -2.34375,-2.38867 l 1.41407,-2.82812 c 0.14787,-0.0183 0.28371,-0.0795 0.42187,-0.13281 0.49374,-0.24134 1.07297,-0.45829 1.62891,-0.44532 z m -11.83008,1.29492 c 0.74932,-0.0614 1.54717,0.2765 1.94336,1.01563 0.43573,1.45675 0.20944,3.42866 -1.25781,4.28906 -1.20937,1.23585 -3.62177,-0.0883 -2.92774,-1.77929 -0.14707,-0.75721 0.36291,-1.44359 0.58399,-2.14258 0.20707,-0.86006 0.90888,-1.3214 1.6582,-1.38282 z m 62.86328,3.98633 c 0.89068,-0.0281 1.78079,0.16232 2.5,0.70313 1.05786,1.16324 2.60083,1.70976 3.60156,2.89844 0.78273,1.0909 2.66017,1.64302 2.32032,3.31445 -0.27171,1.46184 -1.54047,2.51709 -3.13477,2.13867 -0.93684,-1.62946 -2.25588,-1.93831 -3.46875,-2.4375 -1.41408,-0.51651 -2.77982,-1.32857 -3.8125,-2.43359 -0.64668,-1.1879 -0.53154,-2.92143 0.42773,-3.92383 0.49702,-0.14773 1.032,-0.24293 1.56641,-0.25977 z m -30.0918,5.40235 c 0.56203,0.0113 1.11838,0.18377 1.57813,0.52929 1.1224,0.77226 1.70528,2.05212 2.20312,3.27149 0.78379,2.10519 -0.5565,4.55418 -2.54882,5.41015 -1.4528,0.46281 -2.8705,1.15596 -4.41993,1.22266 -1.12924,0.0851 -2.28296,-0.47225 -2.84179,-1.47266 -0.71204,-0.52778 -1.29639,-1.23612 -1.64649,-2.05273 -0.75421,-1.65925 -0.31459,-3.70524 0.94727,-4.99414 0.11169,0.0496 0.22643,0.0923 0.34375,0.12695 1.14072,0.35685 2.24617,-0.28574 3.20312,-0.83594 0.49329,-0.31767 1.05977,-0.4889 1.56836,-0.76757 0.48293,-0.29889 1.05126,-0.44882 1.61328,-0.4375 z m -187.130856,6.41406 c 1.072533,0.009 2.126098,0.35213 2.791016,1.08008 2.673553,3.72676 0.600029,8.35932 -0.189453,12.36914 -1.478141,3.70573 1.875304,7.54367 0.01172,11.07422 -2.393039,4.35593 -8.9164,6.21481 -12.677735,2.53711 -3.395046,-4.14457 -4.091675,-10.28613 -1.720703,-15.10938 2.118272,-3.53289 4.326253,-8.22914 7.984375,-9.42773 0.174273,-1.62261 2.013228,-2.53809 3.80078,-2.52344 z m 23.703125,2.37695 c 1.207099,-0.0592 2.355747,0.3122 3.169922,1.41016 0.7396,1.00216 1.664642,1.84436 2.603516,2.65429 2.788993,2.01725 4.938062,4.92959 5.498047,8.36915 0.163182,3.11897 -1.194726,5.09567 -2.134766,8.00781 -0.932788,3.53657 -6.265128,5.20922 -8.332031,2.32617 -2.432211,-2.13875 -2.812104,-5.2802 -3.800781,-7.86719 -1.110466,-2.36308 -2.821874,-4.2775 -4.28125,-6.4082 -1.277936,-2.61889 0.358745,-5.67316 2.90625,-6.76758 1.169546,-0.86135 2.819109,-1.6485 4.371093,-1.72461 z m 145.779301,4.49024 c 2.21758,0.0341 4.61727,2.85255 3.34375,4.82421 -0.50446,3.02515 0.652,6.17183 -0.88868,9.01172 -0.70347,2.36401 -2.58693,5.66075 -5.43359,5.12891 -2.70271,-1.34553 -3.22923,-4.9861 -2.91211,-7.76367 -0.41136,-2.85698 1.14017,-5.57298 0.6875,-8.83985 0.22944,-3.19199 2.64711,-1.72552 4.27539,-2.19531 0.29812,-0.11932 0.61094,-0.17089 0.92774,-0.16601 z m 40.41015,27.13086 c 0.85469,0.0154 1.70641,0.19867 2.48828,0.54492 2.43463,0.78176 3.22509,3.399 2.30079,5.61719 -0.2319,2.56035 -1.73155,4.72988 -2.7461,7.01757 -0.59146,2.28332 -4.79356,2.4101 -3.56836,-0.45312 0.98541,-2.28328 0.0356,-4.70768 -0.61523,-6.94336 0.12288,-1.81064 -1.23787,-5.20016 1.28711,-5.74414 0.28301,-0.0324 0.56862,-0.0442 0.85351,-0.0391 z"
     id="path3465"
     inkscape:connector-curvature="0"
     sodipodi:nodetypes="ccccccccccccccccccccccccccccccccccccccccccccccccccccccccccccccccccccccccccccccccccccccccccccccccccccccccsccccccccsccccccscccccccsccccccccccccccccccccccccccccccccccsccsccccccscccccccccccccccccccccccccccccccccccccccccccccccccccccccccccccccccccccccccccccccccccccccccccccccccccccccccccccccccccccccccccccccccccccccscccccccccccccccccccccccccccccccccccccccccccccccccsccsccccscccccccccsccccccccccsccccccccccccccccccccccccccccccccccc" />
  <g
     id="g3376"
     transform="matrix(0.6338297,0,0,0.6338297,50.142253,86.405388)">
    <path
       d="m 685.53,220.8 c -0.24097,-0.674 -0.58301,-1.332 -1.001,-1.937 -0.41803,-0.60501 -0.91199,-1.159 -1.457,-1.624 -0.54394,-0.465 -1.14,-0.843 -1.761,-1.096 L 395.961,99.793 c -0.41699,-0.173 -0.84,-0.395 -1.271,-0.671 -0.431,-0.276 -0.87,-0.607 -1.32,-1 -0.44998,-0.393 -0.91199,-0.846 -1.388,-1.367 -0.47598,-0.521 -0.965,-1.11 -1.471,-1.772 -0.75299,-0.985 -1.521,-2.131 -2.291,-3.42 -0.76999,-1.289 -1.543,-2.721 -2.303,-4.277 -0.76099,-1.556 -1.509,-3.236 -2.23,-5.022 -0.72202,-1.787 -1.417,-3.678 -2.071,-5.657 -0.659,-1.982 -1.281,-4.05 -1.858,-6.186 -0.57599,-2.137 -1.107,-4.344 -1.585,-6.602 -0.479,-2.26 -0.90302,-4.572 -1.268,-6.919 -0.36401,-2.35 -0.66699,-4.735 -0.89999,-7.138 -0.31601,-3.208 -0.49301,-6.292 -0.54102,-9.219 -0.049,-2.933 0.03,-5.71 0.22601,-8.301 0.19501,-2.595 0.50601,-5.003 0.92099,-7.193 0.41501,-2.193 0.935,-4.168 1.544,-5.892 0.30301,-0.862 0.629,-1.66 0.97299,-2.392 0.34399,-0.732 0.70602,-1.398 1.083,-1.996 0.37601,-0.599 0.767,-1.129 1.167,-1.589 0.40002,-0.46 0.811,-0.851 1.226,-1.17 0.075,-0.057 0.14999,-0.112 0.22598,-0.165 0.076,-0.053 0.15002,-0.104 0.22501,-0.151 0.075,-0.049 0.14999,-0.095 0.22501,-0.139 0.075,-0.044 0.14899,-0.086 0.22501,-0.126 -123.46,65.965 -246.9,131.93 -370.35,197.89 -0.064,0.034 -0.127,0.07 -0.191,0.10901 -0.064,0.039 -0.127,0.08 -0.19,0.12299 -0.063,0.043 -0.126,0.089 -0.189,0.136 -0.062,0.048 -0.125,0.098 -0.188,0.15001 -0.344,0.29199 -0.675,0.662 -0.988,1.106 -0.313,0.444 -0.609,0.963 -0.884,1.555 -0.274,0.592 -0.528,1.257 -0.757,1.995 -0.229,0.737 -0.433,1.545 -0.608,2.425 -0.355,1.756 -0.597,3.787 -0.716,6.061 -0.12,2.27 -0.118,4.78 0.012,7.5 0.13,2.715 0.389,5.639 0.783,8.742 0.394,3.096 0.924,6.369 1.597,9.789 0.501,2.561 1.064,5.11 1.678,7.628 0.614,2.516 1.279,5.001 1.988,7.437 0.708,2.433 1.458,4.817 2.242,7.134 0.783,2.314 1.601,4.562 2.442,6.725 0.836,2.157 1.7,4.228 2.575,6.189 0.875,1.962 1.761,3.814 2.644,5.539 0.883,1.723 1.763,3.317 2.623,4.761 0.861,1.444 1.703,2.737 2.511,3.859 0.544,0.754 1.063,1.43 1.562,2.031 0.499,0.60303 0.977,1.132 1.437,1.596 0.46,0.46402 0.904,0.86099 1.333,1.201 0.429,0.34 0.843,0.62 1.247,0.84998 l 279.72,156.76 c 0.617,0.34601 1.223,0.82001 1.791,1.381 0.56699,0.56198 1.097,1.21 1.56,1.904 0.46301,0.69299 0.85901,1.434 1.163,2.179 0.30301,0.74402 0.513,1.493 0.60101,2.205 0.044,0.358 0.056,0.69 0.038,0.99298 -0.019,0.30402 -0.067,0.57901 -0.143,0.824 -0.076,0.245 -0.17999,0.46002 -0.30798,0.64401 -0.12802,0.18298 -0.28201,0.33398 -0.457,0.452 121.87,-81.857 243.74,-163.72 365.6,-245.58 0.20001,-0.13501 0.38104,-0.299 0.53802,-0.49 0.15698,-0.19099 0.29199,-0.41 0.40002,-0.65399 0.10797,-0.244 0.19,-0.513 0.24396,-0.806 0.053,-0.29201 0.077,-0.608 0.069,-0.94501 -0.014,-0.66899 -0.15503,-1.359 -0.39703,-2.032 z"
       id="path3"
       inkscape:connector-curvature="0" />
    <g
       id="g5">
      <g
         id="g7">
        <g
           id="g9">
          <g
             id="g11">
            <path
               d="m 297.16,394.96 c 0.518,4.06 1.193,8.109 2.008,12.109 0.814,3.994 1.768,7.94 2.846,11.803 1.077,3.856 2.278,7.631 3.587,11.284 1.308,3.65 2.725,7.182 4.236,10.558 0.44299,0.98602 0.89398,1.96 1.353,2.921 0.45898,0.95999 0.927,1.906 1.403,2.839 0.47702,0.93301 0.961,1.852 1.455,2.755 0.49399,0.90399 0.996,1.793 1.508,2.667 L 42.066,299.766 c -0.407,-0.229 -0.824,-0.51001 -1.256,-0.85001 -0.432,-0.34 -0.877,-0.73801 -1.34,-1.203 -0.463,-0.465 -0.943,-0.995 -1.444,-1.599 -0.501,-0.604 -1.022,-1.28 -1.568,-2.037 -0.812,-1.124 -1.656,-2.421 -2.52,-3.869 -0.864,-1.448 -1.745,-3.047 -2.63,-4.776 -0.885,-1.729 -1.772,-3.588 -2.648,-5.556 -0.876,-1.969 -1.739,-4.047 -2.576,-6.212 -0.841,-2.169 -1.657,-4.425 -2.439,-6.748 -0.783,-2.325 -1.531,-4.719 -2.236,-7.161 -0.706,-2.444 -1.368,-4.938 -1.979,-7.464 -0.61,-2.528 -1.169,-5.088 -1.665,-7.659 -0.667,-3.434 -1.189,-6.721 -1.575,-9.83 -0.387,-3.115 -0.637,-6.052 -0.758,-8.78 -0.122,-2.733 -0.114,-5.255 0.016,-7.536 0.129,-2.285 0.38,-4.326 0.746,-6.091 0.18,-0.884 0.389,-1.697 0.623,-2.438 0.234,-0.74199 0.493,-1.411 0.772,-2.006 0.28,-0.59599 0.581,-1.118 0.898,-1.565 0.318,-0.44699 0.653,-0.819 1.001,-1.114 0.354,-0.295 0.714,-0.51799 1.08,-0.67099 0.366,-0.153 0.738,-0.23901 1.117,-0.261 0.38,-0.022 0.767,0.02 1.161,0.12 0.395,0.10001 0.798,0.259 1.211,0.472 l 278.84,144.79 c -0.67099,0.80701 -1.291,1.716 -1.859,2.719 -0.56702,1.002 -1.084,2.1 -1.553,3.284 -0.46799,1.183 -0.88699,2.453 -1.26,3.805 -0.37198,1.35 -0.69699,2.78 -0.978,4.284 -0.383,2.081 -0.677,4.309 -0.87799,6.67 -0.20102,2.357 -0.30899,4.849 -0.32101,7.462 -0.012,2.609 0.072,5.341 0.25601,8.183 0.18399,2.836 0.46701,5.785 0.854,8.833 z"
               id="path13"
               inkscape:connector-curvature="0"
               style="fill:#3f973e" />
          </g>
        </g>
      </g>
    </g>
    <g
       id="g15">
      <g
         id="g17">
        <g
           id="g19">
          <g
             id="g21">
            <path
               d="m 297.16,394.96 c 0.518,4.06 1.193,8.109 2.008,12.109 0.814,3.994 1.768,7.94 2.846,11.803 1.077,3.856 2.278,7.631 3.587,11.284 1.308,3.65 2.725,7.182 4.236,10.558 0.44299,0.98602 0.89398,1.96 1.353,2.921 0.45898,0.95999 0.927,1.906 1.403,2.839 0.47702,0.93301 0.961,1.852 1.455,2.755 0.49399,0.90399 0.996,1.793 1.508,2.667 L 42.066,299.766 c -0.407,-0.229 -0.824,-0.51001 -1.256,-0.85001 -0.432,-0.34 -0.877,-0.73801 -1.34,-1.203 -0.463,-0.465 -0.943,-0.995 -1.444,-1.599 -0.501,-0.604 -1.022,-1.28 -1.568,-2.037 -0.812,-1.124 -1.656,-2.421 -2.52,-3.869 -0.864,-1.448 -1.745,-3.047 -2.63,-4.776 -0.885,-1.729 -1.772,-3.588 -2.648,-5.556 -0.876,-1.969 -1.739,-4.047 -2.576,-6.212 -0.841,-2.169 -1.657,-4.425 -2.439,-6.748 -0.783,-2.325 -1.531,-4.719 -2.236,-7.161 -0.706,-2.444 -1.368,-4.938 -1.979,-7.464 -0.61,-2.528 -1.169,-5.088 -1.665,-7.659 -0.667,-3.434 -1.189,-6.721 -1.575,-9.83 -0.387,-3.115 -0.637,-6.052 -0.758,-8.78 -0.122,-2.733 -0.114,-5.255 0.016,-7.536 0.129,-2.285 0.38,-4.326 0.746,-6.091 0.18,-0.884 0.389,-1.697 0.623,-2.438 0.234,-0.74199 0.493,-1.411 0.772,-2.006 0.28,-0.59599 0.581,-1.118 0.898,-1.565 0.318,-0.44699 0.653,-0.819 1.001,-1.114 0.354,-0.295 0.714,-0.51799 1.08,-0.67099 0.366,-0.153 0.738,-0.23901 1.117,-0.261 0.38,-0.022 0.767,0.02 1.161,0.12 0.395,0.10001 0.798,0.259 1.211,0.472 l 278.84,144.79 c -0.67099,0.80701 -1.291,1.716 -1.859,2.719 -0.56702,1.002 -1.084,2.1 -1.553,3.284 -0.46799,1.183 -0.88699,2.453 -1.26,3.805 -0.37198,1.35 -0.69699,2.78 -0.978,4.284 -0.383,2.081 -0.677,4.309 -0.87799,6.67 -0.20102,2.357 -0.30899,4.849 -0.32101,7.462 -0.012,2.609 0.072,5.341 0.25601,8.183 0.18399,2.836 0.46701,5.785 0.854,8.833 z"
               id="path23"
               inkscape:connector-curvature="0"
               style="fill:#ffffff" />
          </g>
          <path
             d="m 378.6,15.184 c -0.35202,-0.131 -0.699,-0.229 -1.046,-0.289 -0.34698,-0.06 -0.69098,-0.084 -1.035,-0.068 -0.345,0.016 -0.68802,0.071 -1.032,0.169 -0.34299,0.098 -0.68799,0.237 -1.032,0.422 -118.07,63.111 -236.13,126.22 -354.2,189.33 0.298,-0.159 0.6,-0.271 0.906,-0.338 0.307,-0.068 0.618,-0.091 0.934,-0.072 0.316,0.019 0.638,0.079 0.965,0.17801 0.327,0.1 0.66,0.23799 0.999,0.41299 l 278.84,144.79 360.36,-226.92 -284.66,-107.609996 z"
             id="path25"
             inkscape:connector-curvature="0"
             style="fill:#3f973e" />
          <path
             d="m 664.59,216.43 c -0.43097,-0.80701 -0.85101,-1.628 -1.259,-2.464 -0.409,-0.836 -0.80804,-1.687 -1.195,-2.551 -0.388,-0.86401 -0.76599,-1.743 -1.133,-2.635 -1.252,-3.051 -2.388,-6.262 -3.396,-9.6 -1.008,-3.34 -1.887,-6.808 -2.625,-10.368 -0.73804,-3.565 -1.336,-7.225 -1.778,-10.945 -0.44403,-3.726 -0.732,-7.514 -0.854,-11.33 -0.088,-2.864 -0.076,-5.645 0.03,-8.33 0.10498,-2.689 0.30695,-5.284 0.59698,-7.773 0.29102,-2.493 0.67096,-4.879 1.135,-7.148 0.46497,-2.273 1.015,-4.427 1.644,-6.453 0.45801,-1.464 0.95599,-2.862 1.496,-4.189 0.539,-1.329 1.12,-2.585 1.743,-3.764 0.62396,-1.18 1.29,-2.282 2,-3.299 0.70996,-1.019 1.465,-1.952 2.264,-2.795 l -360.36,226.92 c -0.67102,0.80701 -1.291,1.716 -1.859,2.719 -0.56702,1.002 -1.084,2.1 -1.553,3.284 -0.46799,1.183 -0.88699,2.453 -1.26,3.805 -0.37198,1.35 -0.69699,2.78 -0.978,4.284 -0.383,2.081 -0.677,4.309 -0.87799,6.67 -0.20099,2.357 -0.30899,4.849 -0.32098,7.462 -0.012,2.609 0.072,5.341 0.25598,8.183 0.18399,2.838 0.46701,5.786 0.854,8.834 0.518,4.06 1.193,8.109 2.008,12.109 0.814,3.994 1.768,7.94 2.846,11.803 1.077,3.856 2.278,7.631 3.587,11.284 1.308,3.65 2.725,7.182 4.236,10.558 0.44299,0.98602 0.89401,1.96 1.353,2.921 0.45902,0.95999 0.927,1.906 1.403,2.839 0.47699,0.93301 0.961,1.852 1.455,2.755 0.49399,0.90399 0.996,1.793 1.508,2.667 l 350.36,-233.08 c -0.45203,-0.776 -0.893,-1.568 -1.324,-2.374 z"
             id="path27"
             inkscape:connector-curvature="0"
             style="fill:#e2e3e4" />
        </g>
      </g>
    </g>
    <path
       d="m 683.05,115.13 c -0.24805,-0.699 -0.60004,-1.377 -1.028,-1.996 -0.42999,-0.619 -0.93701,-1.179 -1.495,-1.644 -0.55804,-0.465 -1.17,-0.834 -1.808,-1.071 L 386.699,1.739 c -0.76599,-0.285 -1.512,-0.483 -2.235,-0.602 -0.724,-0.118 -1.425,-0.157 -2.102,-0.122 -0.677,0.035 -1.329,0.144 -1.955,0.319 -0.625,0.175 -1.225,0.417 -1.795,0.72 -123.69,65.605 -247.39,131.21 -371.08,196.81 0.488,-0.259 1.011,-0.451 1.565,-0.57001 0.554,-0.119 1.142,-0.16299 1.761,-0.127 0.619,0.035 1.27,0.151 1.95,0.354 0.681,0.203 1.391,0.494 2.13,0.877 l 285.76,148.46 c 0.63199,0.32901 1.254,0.79501 1.837,1.357 0.58298,0.56201 1.127,1.221 1.604,1.933 0.47699,0.71201 0.88599,1.477 1.199,2.254 0.31302,0.776 0.53101,1.563 0.625,2.319 0.05,0.405 0.062,0.78 0.04,1.123 -0.023,0.34302 -0.08,0.65302 -0.16901,0.93002 -0.089,0.27698 -0.20898,0.518 -0.358,0.72299 -0.14798,0.20401 -0.32599,0.371 -0.52798,0.49899 125.69,-79.508 251.38,-159.01 377.07,-238.51 0.229,-0.145 0.43701,-0.325 0.61798,-0.536 0.18103,-0.211 0.336,-0.45499 0.461,-0.728 0.125,-0.273 0.22101,-0.574 0.28204,-0.902 0.062,-0.328 0.0909,-0.682 0.082,-1.06 -0.016,-0.706 -0.16199,-1.427 -0.40997,-2.127 z"
       id="path29"
       inkscape:connector-curvature="0" />
    <g
       id="g31">
      <path
         d="m 14.937,199.4 285.76,148.46 c 0.63199,0.32901 1.254,0.79501 1.837,1.357 0.58298,0.56201 1.127,1.221 1.604,1.933 0.47699,0.71201 0.88599,1.477 1.199,2.254 0.31302,0.776 0.53101,1.563 0.625,2.319 0.094,0.75699 0.055,1.409 -0.096,1.942 -0.151,0.53302 -0.41302,0.94601 -0.76602,1.224 -0.353,0.27698 -0.79599,0.41898 -1.309,0.40799 -0.513,-0.01 -1.095,-0.172 -1.726,-0.50299 L 16.915002,209.514 c -0.409,-0.213 -0.81,-0.37199 -1.201,-0.47299 -0.391,-0.10101 -0.775,-0.14401 -1.151,-0.123 -0.375,0.021 -0.744,0.105 -1.105,0.25699 -0.362,0.15201 -0.717,0.37201 -1.067,0.66501 -0.344,0.29199 -0.675,0.662 -0.988,1.106 -0.313,0.444 -0.609,0.963 -0.884,1.555 -0.274,0.592 -0.528,1.257 -0.757,1.995 -0.229,0.737 -0.433,1.545 -0.608,2.425 -0.355,1.756 -0.597,3.787 -0.716,6.061 -0.12,2.27 -0.118,4.78 0.012,7.5 0.13,2.715 0.389,5.639 0.783,8.742 0.394,3.096 0.924,6.369 1.597,9.789 0.501,2.561 1.064,5.11 1.678,7.628 0.614,2.516 1.279,5.001 1.988,7.437 0.708,2.433 1.458,4.817 2.242,7.134 0.783,2.314 1.601,4.562 2.442,6.725 0.836,2.157 1.7,4.228 2.575,6.189 0.875,1.962 1.761,3.814 2.644,5.539 0.883,1.723 1.763,3.317 2.623,4.761 0.861,1.444 1.703,2.737 2.511,3.859 0.544,0.754 1.063,1.43 1.562,2.031 0.499,0.60303 0.977,1.132 1.437,1.596 0.46,0.46402 0.904,0.86099 1.333,1.201 0.429,0.34 0.843,0.62 1.247,0.84998 l 279.719998,156.76 c 0.617,0.34601 1.223,0.82001 1.791,1.381 0.56699,0.56198 1.097,1.21 1.56,1.904 0.46301,0.69299 0.85901,1.434 1.163,2.179 0.30301,0.74402 0.513,1.493 0.60101,2.205 0.088,0.71201 0.047,1.319 -0.103,1.808 -0.15002,0.48901 -0.40802,0.85901 -0.754,1.097 -0.34601,0.23801 -0.78101,0.34201 -1.282,0.301 -0.50101,-0.041 -1.07,-0.229 -1.686,-0.57599 L 36.962012,313.532 c -0.897,-0.50601 -1.8,-1.127 -2.701,-1.845 -0.9,-0.71902 -1.799,-1.535 -2.689,-2.432 -0.889,-0.897 -1.769,-1.875 -2.633,-2.918 -0.863,-1.042 -1.71,-2.149 -2.533,-3.305 -0.831,-1.161 -1.645,-2.375 -2.443,-3.637 -0.798,-1.262 -1.581,-2.572 -2.348,-3.927 -0.768,-1.354 -1.52,-2.753 -2.257,-4.191 -0.737,-1.439 -1.46,-2.919 -2.168,-4.434 -1.412,-3.031 -2.77,-6.215 -4.058,-9.517 -1.289,-3.306 -2.509,-6.73 -3.645,-10.242 -1.137,-3.516 -2.189,-7.119 -3.143,-10.776 -0.955,-3.663 -1.812,-7.382 -2.553,-11.12 -0.554,-2.807 -1.023,-5.527 -1.41,-8.152 -0.387,-2.629 -0.691,-5.163 -0.914,-7.589 -0.223,-2.43 -0.364,-4.753 -0.426,-6.958 -0.062,-2.208 -0.043,-4.299 0.054,-6.259 0.103,-1.959 0.28,-3.794 0.538,-5.488 0.258,-1.696 0.597,-3.251 1.021,-4.648 0.425,-1.399 0.935,-2.639 1.537,-3.704 0.603,-1.066 1.297,-1.957 2.088,-2.655 0.523,-0.463 1.098,-0.83299 1.724,-1.1 0.626,-0.26701 1.303,-0.42801 2.028,-0.47401 0.726,-0.045 1.499,0.026 2.318,0.227 0.819,0.203 1.684,0.533 2.593,1.005 z"
         id="path33"
         inkscape:connector-curvature="0"
         style="fill:#3f3f3f" />
    </g>
    <g
       style="fill:#ffffff"
       id="g6"
       transform="matrix(0.72818041,0.00351688,-0.00720263,0.35555349,-383.51072,7.586151)">
      <path
         style="fill:#ffffff"
         id="path8-6"
         d="m 1075.7267,203.41328 c -28.3606,0 -54.5232,9.4081 -75.5313,25.28125 l 7.3438,23.8125 c 18.1017,-16.18461 41.9942,-26.03125 68.1875,-26.03125 5.2132,0 10.3402,0.40427 15.3437,1.15625 l 24.9688,-17.59375 c -12.6524,-4.29262 -26.2091,-6.625 -40.3125,-6.625 z"
         inkscape:connector-curvature="0" />
      <path
         style="fill:#ffffff"
         id="path10-0"
         d="m 1147.6329,226.06953 -20.3437,14.3125 c 25.8054,15.07939 44.3902,41.15279 49.4062,71.78125 l 24.4063,18.3125 c 0.01,-0.55348 0.031,-1.10107 0.031,-1.65625 0,-42.5055 -21.1543,-80.06976 -53.5,-102.75 z"
         inkscape:connector-curvature="0" />
      <path
         style="fill:#ffffff"
         id="path12-3"
         d="m 975.22667,253.78828 c -15.64726,20.92303 -24.90625,46.89381 -24.90625,75.03125 0,14.32544 2.4208,28.08164 6.84375,40.90625 l 24.875,0.375 c -5.57091,-12.62854 -8.65625,-26.59458 -8.65625,-41.28125 0,-16.49598 3.91142,-32.07516 10.84375,-45.875 l -9,-29.15625 z"
         inkscape:connector-curvature="0" />
      <path
         style="fill:#ffffff"
         id="path14-8"
         d="m 1175.7579,350.50703 c -6.5078,30.17394 -26.3037,55.40982 -52.9687,69.25 l -9.875,28.875 c 39.5369,-12.26837 70.701,-43.56733 82.7812,-83.1875 l -19.9375,-14.9375 z"
         inkscape:connector-curvature="0" />
      <path
         style="fill:#ffffff"
         id="path16-0"
         d="m 973.32042,401.22578 c 22.71561,32.07398 60.11908,53.03125 102.40628,53.03125 0.7492,0 1.5038,-0.0182 2.25,-0.0312 l 8.0312,-23.5625 c -3.3805,0.33734 -6.8119,0.53125 -10.2812,0.53125 -28.0231,0 -53.4242,-11.27806 -71.9063,-29.53125 l -30.49998,-0.4375 z"
         inkscape:connector-curvature="0" />
      <path
         style="fill:#ffffff"
         id="path18-5"
         d="m 1053.6642,259.00703 -74.65628,52.59375 c -0.99564,5.59454 -1.53125,11.34004 -1.53125,17.21875 0,3.92338 0.24113,7.78787 0.6875,11.59375 l 94.90623,-66.84375 -19.4062,-14.5625 z"
         inkscape:connector-curvature="0" />
      <path
         style="fill:#ffffff"
         id="path20-7"
         d="m 1211.1642,148.10078 c -43.5642,30.64953 -87.1071,61.32922 -130.6563,92 l 19.4375,14.53125 66.4688,-46.8125 -7.4375,21.8125 c 6.6129,5.55853 12.6447,11.77159 18.0312,18.53125 11.369,-33.35977 22.7589,-66.71243 34.1563,-100.0625 z"
         inkscape:connector-curvature="0" />
      <path
         style="fill:#ffffff"
         id="path22-1"
         d="m 1147.8517,262.16328 -37.4688,109.84375 24.25,0.34375 29.5,-86.4375 c -4.2471,-8.72334 -9.7601,-16.7061 -16.2812,-23.75 z"
         inkscape:connector-curvature="0" />
      <path
         style="fill:#ffffff"
         id="path24"
         d="m 946.35167,334.56953 c -31.12958,21.91657 -55.5312,39.0952 -86.46875,60.875 53.45507,0.81498 111.49174,1.66127 159.78128,2.375 l -7.1563,-23.1875 c -27.07297,-0.39076 -54.14592,-0.78417 -81.21873,-1.1875 6.25116,-4.4046 12.5,-8.8125 18.75,-13.21875 -2.05388,-8.26193 -3.30453,-16.85336 -3.6875,-25.65625 z"
         inkscape:connector-curvature="0" />
      <path
         style="fill:#ffffff"
         id="path26"
         d="m 1045.3829,375.10078 7.1563,23.1875 91.25,1.34375 c 6.9428,-6.67331 12.9075,-14.35467 17.6562,-22.8125 z"
         inkscape:connector-curvature="0" />
      <path
         style="fill:#ffffff"
         id="path28"
         d="m 1161.6329,305.94453 -7.8437,22.96875 65.0625,48.75 -23,-0.34375 c -3.2723,8.07397 -7.3662,15.73726 -12.125,22.90625 l 66.5625,1 39.25,0.5625 c -42.6306,-31.9544 -85.2697,-63.89739 -127.9063,-95.84375 z"
         inkscape:connector-curvature="0" />
      <path
         style="fill:#ffffff"
         id="path30"
         d="m 1062.2892,231.50703 c -9.7519,1.33426 -19.0657,4.11676 -27.6875,8.09375 l 92.875,69.59375 7.8437,-22.96875 -73.0312,-54.71875 z"
         inkscape:connector-curvature="0" />
      <path
         style="fill:#ffffff"
         id="path32"
         d="m 1099.7579,403.10078 -26.25,76.9375 -6.8125,-22.03125 c -8.7535,-0.60457 -17.2804,-2.05283 -25.4687,-4.3125 10.3798,33.6716 20.78,67.33693 31.1875,101 l 12.6562,-37.15625 38.9375,-114.09375 -24.25,-0.34375 z"
         inkscape:connector-curvature="0" />
      <path
         style="fill:#ffffff"
         id="path34"
         d="m 1022.3204,314.28828 -19.8125,13.96875 26.9375,87.21875 c 8.3925,4.48932 17.4986,7.81865 27.125,9.71875 l -34.25,-110.90625 z"
         inkscape:connector-curvature="0" />
      <path
         style="fill:#ffffff"
         id="path36"
         d="m 945.66417,144.16328 c 15.72302,50.89452 31.43852,101.79135 47.15625,152.6875 l 19.81248,-13.96875 -23.96873,-77.6875 18.40623,13.8125 0.031,0 c 7.2715,-4.54828 15.0422,-8.38745 23.1875,-11.4375 l -84.62498,-63.40625 z"
         inkscape:connector-curvature="0" />
    </g>
    <path
       inkscape:connector-curvature="0"
       id="path4204"
       d="m 112.09813,427.87324 c -5.5865,-2.55826 -11.443,-7.80902 -14.042931,-12.5905 -1.991224,-3.662 -2.504531,-5.74446 -2.799038,-11.35557 -0.32157,-6.1267 -0.585892,-7.04837 -2.439541,-8.50644 -3.845398,-3.02479 -11.207947,-1.76814 -29.42984,5.02317 -3.996612,1.48954 -7.514645,2.46018 -7.817851,2.15697 -0.303206,-0.3032 0.606381,-1.75796 2.021303,-3.23278 2.308399,-2.40612 2.527496,-3.06897 2.133504,-6.45464 -1.538531,-13.22094 7.500889,-37.53425 23.569233,-63.39409 6.334288,-10.19419 23.688481,-34.37248 24.671171,-34.37248 0.5164,0 59.37837,28.85787 59.87504,29.35454 0.17482,0.17482 -1.62964,2.12738 -4.00989,4.33903 -6.93189,6.44087 -21.70025,22.94291 -28.69884,32.06784 -14.73551,19.2125 -21.68083,34.06966 -22.41121,47.94118 -0.4466,8.4817 -0.54003,8.13769 5.42025,19.95684 0.56254,1.11549 -2.65209,0.61901 -6.04136,-0.93307 z"
       style="opacity:1;fill:#ffffff;fill-opacity:1;stroke:#000000;stroke-width:6.79694414;stroke-miterlimit:4;stroke-dasharray:none;stroke-opacity:1" />
  </g>
  <path
     style="fill:#000000;stroke:none;stroke-width:1px;stroke-linecap:butt;stroke-linejoin:miter;stroke-opacity:1;fill-opacity:0"
     d="m 82.717026,394.24888 c -0.320732,-0.83581 -2.168876,-2.45526 -4.106989,-3.59877 -5.173603,-3.0525 -4.490187,-8.88157 1.0413,-8.88157 3.926184,0 7.434859,3.71525 7.434859,7.87258 0,4.96848 -3.011872,8.14483 -4.36917,4.60776 z"
     id="path4319"
     inkscape:connector-curvature="0" />
  <path
     style="fill:#000000;fill-opacity:0"
     d="m 74.859464,425.01854 c -0.845189,-0.9625 -1.859952,-2.875 -2.255029,-4.25 -0.395077,-1.375 -1.838326,-4.15694 -3.207221,-6.18209 -2.879203,-4.25951 -2.487957,-6.96063 1.255257,-8.66615 3.578752,-1.63059 4.247523,-1.48976 7.589688,1.59824 4.285129,3.95926 6.128799,7.91855 5.427661,11.65594 -1.258692,6.70941 -5.550581,9.55629 -8.810356,5.84406 z"
     id="path4321"
     inkscape:connector-curvature="0" />
  <path
     style="fill:#000000;fill-opacity:0"
     d="m 75.24079,426.21615 c -1.356948,-1.25079 -2.159552,-2.73342 -3.171996,-5.85955 -0.780905,-2.4112 -1.028387,-2.84397 -4.573469,-7.99744 -1.055187,-1.53392 -0.835495,-3.66471 0.539327,-5.23096 0.548071,-0.62438 4.240328,-2.57847 5.206256,-2.75537 1.698674,-0.31108 1.909839,-0.15903 7.928386,5.70872 1.446048,1.40981 2.748737,3.67769 3.155765,5.49393 0.344893,1.53898 0.09476,2.79699 -1.314141,6.60932 -1.452236,3.92958 -2.633638,5.02175 -5.432055,5.02175 -1.124698,0 -1.381738,-0.10888 -2.338073,-0.9904 z"
     id="path4323"
     inkscape:connector-curvature="0" />
  <path
     style="fill:#000000;fill-opacity:0"
     d="m 83.360665,395.8024 c -0.317353,-0.22229 -0.776694,-0.87001 -1.020756,-1.43938 -0.742696,-1.73264 -1.614677,-2.52144 -4.152227,-3.75612 -3.29722,-1.60431 -3.611263,-1.95407 -3.611263,-4.02202 0,-2.43682 0.870725,-4.15331 2.550085,-5.02709 0.928703,-0.4832 2.011062,-0.44069 4.204939,0.16516 3.085904,0.85218 4.852032,2.26323 6.000998,4.79451 0.712174,1.56899 0.693223,5.31198 -0.03424,6.76155 -0.641998,1.27927 -1.373626,2.10893 -2.271872,2.57629 -0.851947,0.44327 -0.962287,0.43976 -1.665669,-0.0529 z"
     id="path4325"
     inkscape:connector-curvature="0" />
  <path
     style="fill:#000000;fill-opacity:0"
     d="m 76.677194,427.26207 c -0.598492,-0.16964 -0.932797,-0.40961 -1.770535,-1.2709 -1.385862,-1.42482 -1.848582,-2.29993 -2.823873,-5.34056 -0.907919,-2.83059 -1.351392,-3.65447 -3.636906,-6.75667 -1.518375,-2.06093 -1.56004,-2.13075 -1.715011,-2.874 -0.15452,-0.74108 -0.11674,-1.25767 0.153253,-2.09552 0.329996,-1.02405 1.273986,-2.16693 2.240238,-2.71224 0.243068,-0.13718 0.645484,-0.38009 0.894258,-0.5398 1.443253,-0.92658 2.806059,-1.39847 4.057348,-1.4049 0.726637,-0.004 0.849528,0.0216 1.385641,0.28551 0.506386,0.24929 0.693911,0.41688 1.346964,1.20377 0.725873,0.87463 1.799311,1.91593 2.745614,2.66339 2.586225,2.04281 4.158351,4.31972 4.81956,6.98016 0.168089,0.67632 0.189953,0.94114 0.145945,1.76776 -0.06298,1.18307 -0.307084,2.12325 -1.041723,4.01232 -0.295031,0.75865 -0.712049,1.87483 -0.926707,2.48038 -0.397702,1.12193 -0.600178,1.50123 -1.115651,2.08993 -0.393396,0.44928 -1.445554,1.12384 -2.122236,1.36061 -0.687825,0.24067 -2.045149,0.3183 -2.636179,0.15076 z"
     id="path4331"
     inkscape:connector-curvature="0" />
  <path
     style="fill:#000000;fill-opacity:0"
     d="m 76.677194,427.26207 c -0.598492,-0.16964 -0.932797,-0.40961 -1.770535,-1.2709 -1.385862,-1.42482 -1.848582,-2.29993 -2.823873,-5.34056 -0.907919,-2.83059 -1.351392,-3.65447 -3.636906,-6.75667 -1.518375,-2.06093 -1.56004,-2.13075 -1.715011,-2.874 -0.15452,-0.74108 -0.11674,-1.25767 0.153253,-2.09552 0.329996,-1.02405 1.273986,-2.16693 2.240238,-2.71224 0.243068,-0.13718 0.645484,-0.38009 0.894258,-0.5398 1.443253,-0.92658 2.806059,-1.39847 4.057348,-1.4049 0.726637,-0.004 0.849528,0.0216 1.385641,0.28551 0.506386,0.24929 0.693911,0.41688 1.346964,1.20377 0.725873,0.87463 1.799311,1.91593 2.745614,2.66339 2.586225,2.04281 4.158351,4.31972 4.81956,6.98016 0.168089,0.67632 0.189953,0.94114 0.145945,1.76776 -0.06298,1.18307 -0.307084,2.12325 -1.041723,4.01232 -0.295031,0.75865 -0.712049,1.87483 -0.926707,2.48038 -0.397702,1.12193 -0.600178,1.50123 -1.115651,2.08993 -0.393396,0.44928 -1.445554,1.12384 -2.122236,1.36061 -0.687825,0.24067 -2.045149,0.3183 -2.636179,0.15076 z"
     id="path4333"
     inkscape:connector-curvature="0" />
  <path
     style="fill:#000000;fill-opacity:0"
     d="m 76.677194,427.26207 c -0.598492,-0.16964 -0.932797,-0.40961 -1.770535,-1.2709 -1.385862,-1.42482 -1.848582,-2.29993 -2.823873,-5.34056 -0.907919,-2.83059 -1.351392,-3.65447 -3.636906,-6.75667 -1.518375,-2.06093 -1.56004,-2.13075 -1.715011,-2.874 -0.15452,-0.74108 -0.11674,-1.25767 0.153253,-2.09552 0.329996,-1.02405 1.273986,-2.16693 2.240238,-2.71224 0.243068,-0.13718 0.645484,-0.38009 0.894258,-0.5398 1.443253,-0.92658 2.806059,-1.39847 4.057348,-1.4049 0.726637,-0.004 0.849528,0.0216 1.385641,0.28551 0.506386,0.24929 0.693911,0.41688 1.346964,1.20377 0.725873,0.87463 1.799311,1.91593 2.745614,2.66339 2.586225,2.04281 4.158351,4.31972 4.81956,6.98016 0.168089,0.67632 0.189953,0.94114 0.145945,1.76776 -0.06298,1.18307 -0.307084,2.12325 -1.041723,4.01232 -0.295031,0.75865 -0.712049,1.87483 -0.926707,2.48038 -0.397702,1.12193 -0.600178,1.50123 -1.115651,2.08993 -0.393396,0.44928 -1.445554,1.12384 -2.122236,1.36061 -0.687825,0.24067 -2.045149,0.3183 -2.636179,0.15076 z"
     id="path4335"
     inkscape:connector-curvature="0" />
  <path
     style="fill:#000000;fill-opacity:0"
     d="m 76.677194,427.26207 c -0.598492,-0.16964 -0.932797,-0.40961 -1.770535,-1.2709 -1.385862,-1.42482 -1.848582,-2.29993 -2.823873,-5.34056 -0.907919,-2.83059 -1.351392,-3.65447 -3.636906,-6.75667 -1.518375,-2.06093 -1.56004,-2.13075 -1.715011,-2.874 -0.15452,-0.74108 -0.11674,-1.25767 0.153253,-2.09552 0.329996,-1.02405 1.273986,-2.16693 2.240238,-2.71224 0.243068,-0.13718 0.645484,-0.38009 0.894258,-0.5398 1.443253,-0.92658 2.806059,-1.39847 4.057348,-1.4049 0.726637,-0.004 0.849528,0.0216 1.385641,0.28551 0.506386,0.24929 0.693911,0.41688 1.346964,1.20377 0.725873,0.87463 1.799311,1.91593 2.745614,2.66339 2.586225,2.04281 4.158351,4.31972 4.81956,6.98016 0.168089,0.67632 0.189953,0.94114 0.145945,1.76776 -0.06298,1.18307 -0.307084,2.12325 -1.041723,4.01232 -0.295031,0.75865 -0.712049,1.87483 -0.926707,2.48038 -0.397702,1.12193 -0.600178,1.50123 -1.115651,2.08993 -0.393396,0.44928 -1.445554,1.12384 -2.122236,1.36061 -0.687825,0.24067 -2.045149,0.3183 -2.636179,0.15076 z"
     id="path4337"
     inkscape:connector-curvature="0" />
  <path
     style="fill:#000000;fill-opacity:0"
     d="m 74.704621,424.60386 c -1.139919,-1.44917 -2.07258,-3.16107 -2.07258,-3.80422 0,-0.64315 -1.337465,-3.27833 -2.972144,-5.85595 -3.807698,-6.00411 -3.430937,-6.95181 4.141289,-10.41686 0.368029,-0.16841 2.730529,1.66889 5.25,4.08289 3.811551,3.65199 4.580855,5.00536 4.580855,8.0587 0,4.23732 -2.197756,9.04847 -4.544802,9.94912 -2.227297,0.85469 -2.069228,0.92732 -4.382618,-2.01368 z"
     id="path4341"
     inkscape:connector-curvature="0" />
  <path
     style="fill:#000000;fill-opacity:0;fill-rule:nonzero"
     d="m 76.49516,427.18691 c -0.521524,-0.16463 -0.657092,-0.26406 -1.46956,-1.0778 -1.502127,-1.50447 -1.957313,-2.36533 -3.068242,-5.80275 -0.862238,-2.66792 -1.188497,-3.24919 -3.918844,-6.98191 -1.210217,-1.65452 -1.377686,-2.03153 -1.37306,-3.09102 0.0068,-1.556 1.01599,-3.20098 2.479866,-4.04215 0.226245,-0.13 0.758801,-0.44368 1.183458,-0.69707 1.009765,-0.6025 1.883338,-0.95976 2.800459,-1.14529 0.963108,-0.19483 1.637017,-0.12941 2.370658,0.23014 0.467117,0.22893 0.679073,0.42171 1.384845,1.25957 0.808,0.95922 1.614501,1.71822 3.288882,3.09519 2.080603,1.71102 3.559876,3.98011 4.19151,6.42944 0.162201,0.62898 0.185043,0.90419 0.14623,1.76188 -0.05862,1.2954 -0.257072,2.05533 -1.119504,4.28684 -0.375763,0.97227 -0.791063,2.09361 -0.92289,2.49187 -0.445524,1.34595 -1.242671,2.27787 -2.476416,2.89509 -1.202706,0.60169 -2.399693,0.73447 -3.497392,0.38797 z"
     id="path4343"
     inkscape:connector-curvature="0" />
  <path
     style="fill:#000000;fill-opacity:0;fill-rule:nonzero"
     d="m 76.49516,427.18691 c -0.521524,-0.16463 -0.657092,-0.26406 -1.46956,-1.0778 -1.502127,-1.50447 -1.957313,-2.36533 -3.068242,-5.80275 -0.862238,-2.66792 -1.188497,-3.24919 -3.918844,-6.98191 -1.210217,-1.65452 -1.377686,-2.03153 -1.37306,-3.09102 0.0068,-1.556 1.01599,-3.20098 2.479866,-4.04215 0.226245,-0.13 0.758801,-0.44368 1.183458,-0.69707 1.009765,-0.6025 1.883338,-0.95976 2.800459,-1.14529 0.963108,-0.19483 1.637017,-0.12941 2.370658,0.23014 0.467117,0.22893 0.679073,0.42171 1.384845,1.25957 0.808,0.95922 1.614501,1.71822 3.288882,3.09519 2.080603,1.71102 3.559876,3.98011 4.19151,6.42944 0.162201,0.62898 0.185043,0.90419 0.14623,1.76188 -0.05862,1.2954 -0.257072,2.05533 -1.119504,4.28684 -0.375763,0.97227 -0.791063,2.09361 -0.92289,2.49187 -0.445524,1.34595 -1.242671,2.27787 -2.476416,2.89509 -1.202706,0.60169 -2.399693,0.73447 -3.497392,0.38797 z"
     id="path4345"
     inkscape:connector-curvature="0" />
  <path
     style="fill:#000000;fill-opacity:0;fill-rule:nonzero"
     d="m 76.49516,427.18691 c -0.521524,-0.16463 -0.657092,-0.26406 -1.46956,-1.0778 -1.502127,-1.50447 -1.957313,-2.36533 -3.068242,-5.80275 -0.862238,-2.66792 -1.188497,-3.24919 -3.918844,-6.98191 -1.210217,-1.65452 -1.377686,-2.03153 -1.37306,-3.09102 0.0068,-1.556 1.01599,-3.20098 2.479866,-4.04215 0.226245,-0.13 0.758801,-0.44368 1.183458,-0.69707 1.009765,-0.6025 1.883338,-0.95976 2.800459,-1.14529 0.963108,-0.19483 1.637017,-0.12941 2.370658,0.23014 0.467117,0.22893 0.679073,0.42171 1.384845,1.25957 0.808,0.95922 1.614501,1.71822 3.288882,3.09519 2.080603,1.71102 3.559876,3.98011 4.19151,6.42944 0.162201,0.62898 0.185043,0.90419 0.14623,1.76188 -0.05862,1.2954 -0.257072,2.05533 -1.119504,4.28684 -0.375763,0.97227 -0.791063,2.09361 -0.92289,2.49187 -0.445524,1.34595 -1.242671,2.27787 -2.476416,2.89509 -1.202706,0.60169 -2.399693,0.73447 -3.497392,0.38797 z"
     id="path4347"
     inkscape:connector-curvature="0" />
  <path
     style="fill:#000000;fill-opacity:0;fill-rule:nonzero;opacity:1"
     d="m 76.49516,427.18691 c -0.521524,-0.16463 -0.657092,-0.26406 -1.46956,-1.0778 -1.502127,-1.50447 -1.957313,-2.36533 -3.068242,-5.80275 -0.862238,-2.66792 -1.188497,-3.24919 -3.918844,-6.98191 -1.210217,-1.65452 -1.377686,-2.03153 -1.37306,-3.09102 0.0068,-1.556 1.01599,-3.20098 2.479866,-4.04215 0.226245,-0.13 0.758801,-0.44368 1.183458,-0.69707 1.009765,-0.6025 1.883338,-0.95976 2.800459,-1.14529 0.963108,-0.19483 1.637017,-0.12941 2.370658,0.23014 0.467117,0.22893 0.679073,0.42171 1.384845,1.25957 0.808,0.95922 1.614501,1.71822 3.288882,3.09519 2.080603,1.71102 3.559876,3.98011 4.19151,6.42944 0.162201,0.62898 0.185043,0.90419 0.14623,1.76188 -0.05862,1.2954 -0.257072,2.05533 -1.119504,4.28684 -0.375763,0.97227 -0.791063,2.09361 -0.92289,2.49187 -0.445524,1.34595 -1.242671,2.27787 -2.476416,2.89509 -1.202706,0.60169 -2.399693,0.73447 -3.497392,0.38797 z"
     id="path4349"
     inkscape:connector-curvature="0" />
  <path
     style="fill:none;fill-rule:evenodd;stroke:#000000;stroke-width:1px;stroke-linecap:butt;stroke-linejoin:miter;stroke-opacity:1"
     d="m 60.5,221.5 87,45"
     id="path4408"
     inkscape:connector-curvature="0" />
  <path
     style="fill:none;fill-rule:evenodd;stroke:#000000;stroke-width:1px;stroke-linecap:butt;stroke-linejoin:miter;stroke-opacity:1"
     d="M 60.25,223.75 71,229"
     id="path4410"
     inkscape:connector-curvature="0" />
  <path
     style="fill:none;fill-rule:evenodd;stroke:#000000;stroke-width:1px;stroke-linecap:butt;stroke-linejoin:miter;stroke-opacity:1"
     d="m 60.25,226.5 42.25,22"
     id="path4412"
     inkscape:connector-curvature="0" />
  <path
     style="fill:none;fill-rule:evenodd;stroke:#000000;stroke-width:1px;stroke-linecap:butt;stroke-linejoin:miter;stroke-opacity:1"
     d="M 60.25,229.25 62.5,230 m -1.75,2 139,72"
     id="path4414"
     inkscape:connector-curvature="0" />
  <path
     style="fill:none;fill-rule:evenodd;stroke:#000000;stroke-width:1px;stroke-linecap:butt;stroke-linejoin:miter;stroke-opacity:1"
     d="M 60.45763,234.74657 84.322483,247.3861"
     id="path4416"
     inkscape:connector-curvature="0" />
  <path
     style="fill:none;fill-rule:evenodd;stroke:#000000;stroke-width:1px;stroke-linecap:butt;stroke-linejoin:miter;stroke-opacity:1"
     d="M 60.546018,241.02214 232.63813,330.29437"
     id="path4418"
     inkscape:connector-curvature="0"
     sodipodi:nodetypes="cc" />
  <path
     style="fill:none;fill-rule:evenodd;stroke:#000000;stroke-width:1px;stroke-linecap:butt;stroke-linejoin:miter;stroke-opacity:1"
     d="m 62.755727,245.26478 15.202795,8.13173"
     id="path4420"
     inkscape:connector-curvature="0" />
  <path
     style="fill:none;fill-rule:evenodd;stroke:#000000;stroke-width:1px;stroke-linecap:butt;stroke-linejoin:miter;stroke-opacity:1"
     d="m 61.164736,238.90082 50.558134,25.45585 m -48.260037,-15.90991 35.708893,18.91511"
     id="path4422"
     inkscape:connector-curvature="0" />
  <path
     style="fill:none;fill-rule:evenodd;stroke:#000000;stroke-width:1px;stroke-linecap:butt;stroke-linejoin:miter;stroke-opacity:1"
     d="m 64.523494,252.6894 4.24264,2.2981 m -2.474873,1.59099 15.556349,8.30851 m -13.965359,-4.06587 20.32932,10.96016"
     id="path4424"
     inkscape:connector-curvature="0" />
  <path
     style="fill:none;fill-rule:evenodd;stroke:#000000;stroke-width:1px;stroke-linecap:butt;stroke-linejoin:miter;stroke-opacity:1"
     d="m 69.826794,265.41733 28.991378,15.55635"
     id="path4426"
     inkscape:connector-curvature="0" />
  <path
     style="fill:none;fill-rule:evenodd;stroke:#000000;stroke-width:1px;stroke-linecap:butt;stroke-linejoin:miter;stroke-opacity:1"
     d="m 72.655222,270.36707 10.076271,4.77297"
     id="path4428"
     inkscape:connector-curvature="0" />
  <path
     style="fill:none;fill-rule:evenodd;stroke:#000000;stroke-width:1px;stroke-linecap:butt;stroke-linejoin:miter;stroke-opacity:1"
     d="m 142.5,309.5 72.5,39"
     id="path4430"
     inkscape:connector-curvature="0" />
  <path
     style="fill:none;fill-rule:evenodd;stroke:#000000;stroke-width:1px;stroke-linecap:butt;stroke-linejoin:miter;stroke-opacity:1"
     d="m 155.25,276 82.99004,43.17938 M 156.25,302.25 200,326"
     id="path4432"
     inkscape:connector-curvature="0"
     sodipodi:nodetypes="cccc" />
  <path
     style="fill:none;fill-rule:evenodd;stroke:#000000;stroke-width:1px;stroke-linecap:butt;stroke-linejoin:miter;stroke-opacity:1"
     d="m 185.25,313.25 50,26 m -9.5,15.5 20.86428,11.56434 M 171.25,317.5 l 70.83179,36.86764"
     id="path4434"
     inkscape:connector-curvature="0"
     sodipodi:nodetypes="cccccc" />
  <path
     style="fill:none;fill-rule:evenodd;stroke:#000000;stroke-width:1px;stroke-linecap:butt;stroke-linejoin:miter;stroke-opacity:1"
     d="m 231.04714,333.47635 7.33624,3.53553 m -17.94284,-0.35355 19.99721,10.50305 m -0.72855,10.53338 4.59619,2.12132 m -11.84404,-33.23402 4.94975,2.12133 m -7.95495,-7.24785 8.3085,3.53553 M 234.5,312.625 l 4.375,2.125"
     id="path4436"
     inkscape:connector-curvature="0"
     sodipodi:nodetypes="cccccccccccc" />
  <path
     style="fill:none;fill-rule:evenodd;stroke:#000000;stroke-width:1px;stroke-linecap:butt;stroke-linejoin:miter;stroke-opacity:1"
     d="M 246.42671,366.18004 297.3384,334.89057"
     id="path4438"
     inkscape:connector-curvature="0" />
  <path
     style="fill:none;fill-rule:evenodd;stroke:#000000;stroke-width:1px;stroke-linecap:butt;stroke-linejoin:miter;stroke-opacity:1"
     d="M 243.95184,359.46253 263.2205,348.67915"
     id="path4440"
     inkscape:connector-curvature="0" />
  <path
     style="fill:none;fill-rule:evenodd;stroke:#000000;stroke-width:1px;stroke-linecap:butt;stroke-linejoin:miter;stroke-opacity:1"
     d="m 241.83052,353.98245 27.04683,-16.44023 m -28.46105,9.19239 12.02082,-6.54075 m -13.61181,-25.45584 1.41422,-0.7071"
     id="path4442"
     inkscape:connector-curvature="0"
     sodipodi:nodetypes="cccccc" />
  <path
     style="fill:none;fill-rule:evenodd;stroke:#000000;stroke-width:1px;stroke-linecap:butt;stroke-linejoin:miter;stroke-opacity:1"
     d="m 238.11821,318.98066 7.6014,-4.06586"
     id="path4444"
     inkscape:connector-curvature="0" />
  <path
     style="fill:none;fill-rule:evenodd;stroke:#000000;stroke-width:1px;stroke-linecap:butt;stroke-linejoin:miter;stroke-opacity:1"
     d="m 237.58788,324.8143 9.54594,-5.48008"
     id="path4446"
     inkscape:connector-curvature="0"
     sodipodi:nodetypes="cc" />
  <path
     style="fill:none;fill-rule:evenodd;stroke:#000000;stroke-width:1px;stroke-linecap:butt;stroke-linejoin:miter;stroke-opacity:1"
     d="m 237.76465,328.70338 44.72451,-27.22361"
     id="path4448"
     inkscape:connector-curvature="0"
     sodipodi:nodetypes="cc" />
  <path
     style="fill:none;fill-rule:evenodd;stroke:#000000;stroke-width:1px;stroke-linecap:butt;stroke-linejoin:miter;stroke-opacity:1"
     d="m 238.29498,333.1228 25.98618,-14.84924"
     id="path4450"
     inkscape:connector-curvature="0"
     sodipodi:nodetypes="cc" />
  <path
     style="fill:none;fill-rule:evenodd;stroke:#000000;stroke-width:1px;stroke-linecap:butt;stroke-linejoin:miter;stroke-opacity:1"
     d="M 238.47176,337.18866 271.529,318.62711"
     id="path4452"
     inkscape:connector-curvature="0"
     sodipodi:nodetypes="cc" />
  <path
     style="fill:none;fill-rule:evenodd;stroke:#000000;stroke-width:1px;stroke-linecap:butt;stroke-linejoin:miter;stroke-opacity:1"
     d="m 239.17887,341.78486 27.22361,-15.02602"
     id="path4454"
     inkscape:connector-curvature="0"
     sodipodi:nodetypes="cc" />
  <path
     style="fill:none;fill-rule:evenodd;stroke:#000000;stroke-width:1px;stroke-linecap:butt;stroke-linejoin:miter;stroke-opacity:1"
     d="M 310.06632,328.17305 415.77879,257.81593"
     id="path4456"
     inkscape:connector-curvature="0" />
  <path
     style="fill:none;fill-rule:evenodd;stroke:#000000;stroke-width:1px;stroke-linecap:butt;stroke-linejoin:miter;stroke-opacity:1"
     d="m 470.2689,221.48204 -24.43808,16.88845 m -170.05918,103.9447 62.2254,-38.53732 m 24.04163,-16.26346 63.99316,-41.7193 m 25.45585,-17.32411 16.88845,-11.08516"
     id="path4458"
     inkscape:connector-curvature="0"
     sodipodi:nodetypes="cccccccc" />
  <path
     style="fill:none;fill-rule:evenodd;stroke:#000000;stroke-width:1px;stroke-linecap:butt;stroke-linejoin:miter;stroke-opacity:1"
     d="m 263.39728,335.24412 33.23401,-20.15254 m 7.42462,-5.3033 101.82338,-65.05383 m -51.61879,39.95154 75.66042,-49.14393"
     id="path4460"
     inkscape:connector-curvature="0" />
  <path
     style="fill:none;fill-rule:evenodd;stroke:#000000;stroke-width:1px;stroke-linecap:butt;stroke-linejoin:miter;stroke-opacity:1"
     d="m 294.86353,294.23193 138.94648,-89.80256 m -83.4386,63.28605 105.00536,-68.58935 m -23.68808,24.39518 31.8198,-21.56676"
     id="path4462"
     inkscape:connector-curvature="0" />
  <path
     style="fill:none;fill-rule:evenodd;stroke:#000000;stroke-width:1px;stroke-linecap:butt;stroke-linejoin:miter;stroke-opacity:1"
     d="m 446.18438,222.10704 19.09188,-13.08148"
     id="path4464"
     inkscape:connector-curvature="0" />
  <path
     style="fill:none;fill-rule:evenodd;stroke:#000000;stroke-width:1px;stroke-linecap:butt;stroke-linejoin:miter;stroke-opacity:1"
     d="M 309.75,312.75 343.5,291.5 m -39,13.75 69,-44 m -73.25,34.5 50,-33 m -46.75,35.5 26,-16.75"
     id="path4466"
     inkscape:connector-curvature="0" />
  <path
     style="fill:none;fill-rule:evenodd;stroke:#000000;stroke-width:1px;stroke-linecap:butt;stroke-linejoin:miter;stroke-opacity:1"
     d="m 415.42523,238.72405 25.10229,-15.90991 m 2.12132,-24.04163 21.56676,-15.20279 m -6.71751,8.48528 5.65685,-3.88909 m -2.82843,7.42462 3.53554,-2.82843 M 460.25,182.875 464.125,180.5"
     id="path4468"
     inkscape:connector-curvature="0" />
  <path
     style="fill:none;fill-rule:evenodd;stroke:#000000;stroke-width:1px;stroke-linecap:butt;stroke-linejoin:miter;stroke-opacity:1"
     d="m 461,178.375 3.75,-2.125 m -0.5,36.75 2.25,-1.375 m -2.5,4.625 3.25,-1.875"
     id="path4470"
     inkscape:connector-curvature="0" />
  <path
     style="fill:none;fill-rule:evenodd;stroke:#000000;stroke-width:1px;stroke-linecap:butt;stroke-linejoin:miter;stroke-opacity:1"
     d="m 461.375,206.125 3.25,-2.25 m -6.75,7 7.125,-4.5"
     id="path4472"
     inkscape:connector-curvature="0" />
  <path
     style="fill:none;fill-rule:evenodd;stroke:#000000;stroke-width:1px;stroke-linecap:butt;stroke-linejoin:miter;stroke-opacity:1"
     d="m 447.875,208.125 15.875,-10.75"
     id="path4474"
     inkscape:connector-curvature="0" />
</svg>
